# xmcd CD database file
#
# Track frame offsets:
#	150
#	24008
#	42526
#	52358
#	76505
#	92631
#	117680
#	126178
#	149465
#	173716
#	202116
#
# Disc length: 2955 seconds
#
# Revision: 0
# Processed by: cddbd v1.5.2PL0 Copyright (c) Steve Scherf et al.
# Submitted via: CDex 1.51
#
DISCID=9a0b890b
DTITLE=Yonder - Yonder
DYEAR=2007
DGENRE=Blues
TTITLE0=Deulah Land
TTITLE1=I Want To Wake Up With You
TTITLE2=Anxious Mind
TTITLE3=April Snow
TTITLE4=Single Man Blues
TTITLE5=Motherload Of Love
TTITLE6=Stella
TTITLE7=Yonder
TTITLE8=Faith
TTITLE9=Foggy Straits
TTITLE10=Day By Day
EXTD=YEAR: 2007
EXTT0=
EXTT1=
EXTT2=
EXTT3=
EXTT4=
EXTT5=
EXTT6=
EXTT7=
EXTT8=
EXTT9=
EXTT10=
PLAYORDER=
